<?xml version="1.0" standalone="no"?>
<!DOCTYPE svg PUBLIC "-//W3C//DTD SVG 20010904//EN"
 "http://www.w3.org/TR/2001/REC-SVG-20010904/DTD/svg10.dtd">
<svg version="1.0" xmlns="http://www.w3.org/2000/svg"
 width="300.000000pt" height="300.000000pt" viewBox="0 0 300.000000 300.000000"
 preserveAspectRatio="xMidYMid meet">
<metadata>
Created by potrace 1.10, written by Peter Selinger 2001-2011
</metadata>
<g transform="translate(0.000000,300.000000) scale(0.100000,-0.100000)"
fill="#000000" stroke="none">
<path d="M1101 2491 c-8 -5 -20 -7 -28 -4 -21 8 -63 -25 -79 -62 -18 -43 -18
-114 0 -137 7 -10 25 -18 40 -18 54 0 101 81 89 155 -5 32 -3 35 19 35 55 0
111 -101 157 -285 l28 -110 -46 -41 c-52 -47 -94 -116 -111 -185 l-12 -46 -86
87 c-135 135 -249 190 -395 190 -151 0 -270 -43 -344 -123 -50 -55 -60 -72
-74 -136 -29 -138 77 -330 208 -377 l49 -17 -20 -41 c-31 -62 -28 -148 7 -208
49 -84 166 -146 256 -135 61 7 143 39 216 82 32 20 59 34 59 33 1 -2 7 -25 14
-53 41 -165 175 -318 312 -355 38 -10 38 -11 76 -123 32 -91 43 -113 60 -115
19 -3 22 3 27 68 8 102 37 148 103 170 151 49 256 166 309 346 l21 71 63 -38
c78 -47 160 -79 222 -86 90 -11 207 51 256 135 35 60 38 146 7 208 l-20 41 46
16 c135 48 241 238 211 378 -14 64 -24 81 -74 136 -74 80 -193 123 -344 123
-90 0 -170 -23 -257 -74 -57 -34 -173 -141 -211 -196 -31 -44 -48 -52 -40 -17
13 51 -59 195 -126 251 l-31 27 11 62 c20 104 71 246 105 290 25 32 39 42 61
42 28 0 29 -1 27 -45 -5 -80 33 -140 88 -140 36 0 53 28 52 86 -1 70 -46 132
-97 134 -11 0 -38 3 -61 6 -34 5 -45 2 -73 -21 -52 -44 -108 -179 -140 -337
l-12 -57 -34 15 c-42 17 -149 18 -190 0 l-30 -13 -27 109 c-48 197 -117 308
-191 308 -18 0 -38 -4 -46 -9z m850 -88 c25 -65 -1 -110 -35 -61 -16 22 -22
79 -10 91 11 11 35 -6 45 -30z m-868 5 c4 -12 -1 -37 -10 -55 -30 -63 -70 -18
-43 48 15 34 45 38 53 7z m492 -351 c37 -9 61 -24 93 -56 23 -24 42 -46 42
-50 0 -4 8 -16 18 -27 15 -16 31 -61 69 -186 7 -24 -24 -24 -51 0 -12 10 -46
30 -76 43 -48 21 -70 24 -175 24 -120 0 -121 0 -198 -39 -42 -21 -77 -43 -77
-48 0 -16 -28 11 -36 34 -3 11 1 34 9 52 77 168 131 234 205 252 63 15 117 16
177 1z m-710 -72 c63 -30 98 -56 170 -129 51 -50 110 -118 132 -151 60 -89
133 -215 125 -215 -4 0 -34 14 -66 30 -33 17 -98 43 -145 58 -74 23 -103 27
-206 27 -111 0 -124 -2 -177 -28 -31 -15 -80 -50 -108 -76 l-52 -49 -45 16
c-108 40 -185 152 -191 278 -3 56 0 79 16 110 60 118 190 176 378 170 81 -3
99 -7 169 -41z m1570 34 c118 -22 204 -78 247 -163 16 -31 19 -54 16 -110 -6
-126 -83 -238 -191 -278 l-45 -16 -52 49 c-28 26 -77 61 -108 76 -53 26 -66
28 -177 28 -103 0 -132 -4 -206 -27 -47 -15 -112 -41 -145 -58 -32 -16 -62
-30 -66 -30 -11 0 114 203 164 268 98 127 261 248 358 265 49 9 147 7 205 -4z
m-854 -249 c52 -10 135 -46 172 -74 17 -13 17 -15 -5 -50 -19 -29 -28 -35 -48
-31 -118 22 -217 28 -298 17 -48 -7 -96 -14 -107 -17 -27 -7 -75 72 -54 87 99
66 220 91 340 68z m93 -189 c21 -9 26 -15 21 -29 -5 -9 -9 -34 -9 -54 -2 -62
-13 -66 -184 -70 -150 -3 -154 -2 -172 20 -10 12 -17 31 -15 42 2 11 0 33 -5
49 -10 36 1 47 50 54 58 8 283 -1 314 -12z m-658 -31 c80 -19 295 -106 293
-119 -1 -9 -148 -136 -231 -198 -146 -109 -285 -170 -363 -158 -22 3 -64 19
-93 35 -107 62 -136 161 -77 269 43 79 137 155 225 182 47 14 165 9 246 -11z
m1269 -12 c166 -86 244 -248 172 -357 -31 -47 -113 -98 -172 -106 -78 -12
-217 49 -363 158 -83 62 -230 189 -231 198 -1 6 136 68 214 98 129 48 296 52
380 9z m-535 -218 c59 -52 142 -119 168 -136 2 -1 0 -13 -3 -26 l-6 -25 -58
23 c-221 90 -514 95 -720 14 -61 -24 -61 -24 -61 -7 0 8 19 27 43 44 23 17 80
64 127 104 l85 74 75 6 c41 3 120 3 175 1 l100 -5 75 -67z m-96 -145 c88 -15
233 -64 240 -80 2 -5 -7 -34 -20 -63 l-23 -52 -40 21 c-108 56 -391 80 -531
45 -36 -9 -73 -19 -84 -21 -10 -2 -29 -11 -41 -19 -22 -14 -24 -14 -38 17 -32
69 -33 122 -1 110 7 -3 14 0 14 7 0 6 5 8 10 5 6 -3 16 -3 23 2 6 4 19 9 27
10 8 2 47 9 85 17 91 18 279 19 379 1z m79 -184 c53 -18 97 -36 97 -42 0 -22
-106 -120 -156 -145 -103 -51 -264 -50 -365 2 -75 38 -188 159 -157 168 166
53 184 56 343 52 125 -3 151 -7 238 -35z m-213 -268 c0 -17 -33 -93 -41 -93
-8 0 -29 63 -29 88 0 7 14 12 35 12 19 0 35 -3 35 -7z"/>
</g>
</svg>
